<?xml version="1.0" encoding="UTF-8" standalone="no"?>
<!DOCTYPE svg PUBLIC "-//W3C//DTD SVG 1.1//EN"
 "http://www.w3.org/Graphics/SVG/1.1/DTD/svg11.dtd">
<!-- Generated by graphviz version 2.47.0 (20210316.0004)
 -->
<!-- Title: dependencies Pages: 1 -->
<svg width="504pt" height="211pt"
 viewBox="0.00 0.00 504.00 211.00" xmlns="http://www.w3.org/2000/svg" xmlns:xlink="http://www.w3.org/1999/xlink">
<g id="graph0" class="graph" transform="scale(1 1) rotate(0) translate(4 207)">
<title>dependencies</title>
<polygon fill="white" stroke="transparent" points="-4,4 -4,-207 500,-207 500,4 -4,4"/>
<text text-anchor="start" x="227.01" y="-42.4" font-family="Times-12" font-weight="bold" font-size="14.00">Legend</text>
<polygon fill="#ffffb3" stroke="transparent" points="14,-10 14,-30 34,-30 34,-10 14,-10"/>
<text text-anchor="start" x="37.63" y="-15.4" font-family="Times-12" font-size="14.00"> &#160;Declarations</text>
<polygon fill="#8dd3c7" stroke="transparent" points="127,-10 127,-30 147,-30 147,-10 127,-10"/>
<text text-anchor="start" x="150.73" y="-15.4" font-family="Times-12" font-size="14.00"> &#160;Module</text>
<polygon fill="#80b1d3" stroke="transparent" points="213,-10 213,-30 233,-30 233,-10 213,-10"/>
<text text-anchor="start" x="236.78" y="-15.4" font-family="Times-12" font-size="14.00"> &#160;Bootstrap</text>
<polygon fill="#fdb462" stroke="transparent" points="310,-10 310,-30 330,-30 330,-10 310,-10"/>
<text text-anchor="start" x="333.67" y="-15.4" font-family="Times-12" font-size="14.00"> &#160;Providers</text>
<polygon fill="#fb8072" stroke="transparent" points="406,-10 406,-30 426,-30 426,-10 406,-10"/>
<text text-anchor="start" x="429.73" y="-15.4" font-family="Times-12" font-size="14.00"> &#160;Exports</text>
<g id="clust1" class="cluster">
<title>cluster_ServiceModule</title>
<polygon fill="none" stroke="black" stroke-dasharray="1,5" points="31,-70 31,-195 465,-195 465,-70 31,-70"/>
</g>
<g id="clust3" class="cluster">
<title>cluster_ServiceModule_imports</title>
<polygon fill="none" stroke="black" points="353,-78 353,-130 457,-130 457,-78 353,-78"/>
</g>
<g id="clust6" class="cluster">
<title>cluster_ServiceModule_providers</title>
<polygon fill="none" stroke="black" points="39,-78 39,-130 345,-130 345,-78 39,-78"/>
</g>
<!-- AuthModule -->
<g id="node1" class="node">
<title>AuthModule</title>
<polygon fill="#8dd3c7" stroke="black" points="448.55,-122 445.55,-126 424.55,-126 421.55,-122 361.45,-122 361.45,-86 448.55,-86 448.55,-122"/>
<text text-anchor="middle" x="405" y="-99.8" font-family="Times,serif" font-size="14.00">AuthModule</text>
</g>
<!-- ServiceModule -->
<g id="node2" class="node">
<title>ServiceModule</title>
<polygon fill="#8dd3c7" stroke="black" points="320.53,-187 317.53,-191 296.53,-191 293.53,-187 219.47,-187 219.47,-151 320.53,-151 320.53,-187"/>
<text text-anchor="middle" x="270" y="-164.8" font-family="Times,serif" font-size="14.00">ServiceModule</text>
</g>
<!-- AuthModule&#45;&gt;ServiceModule -->
<g id="edge1" class="edge">
<title>AuthModule&#45;&gt;ServiceModule</title>
<path fill="none" stroke="black" d="M405,-122.11C405,-141.34 405,-169 405,-169 405,-169 330.65,-169 330.65,-169"/>
<polygon fill="black" stroke="black" points="330.65,-165.5 320.65,-169 330.65,-172.5 330.65,-165.5"/>
</g>
<!-- PrismaService -->
<g id="node3" class="node">
<title>PrismaService</title>
<ellipse fill="#fdb462" stroke="black" cx="270" cy="-104" rx="66.63" ry="18"/>
<text text-anchor="middle" x="270" y="-99.8" font-family="Times,serif" font-size="14.00">PrismaService</text>
</g>
<!-- PrismaService&#45;&gt;ServiceModule -->
<g id="edge2" class="edge">
<title>PrismaService&#45;&gt;ServiceModule</title>
<path fill="none" stroke="black" d="M270,-122.11C270,-122.11 270,-140.99 270,-140.99"/>
<polygon fill="black" stroke="black" points="266.5,-140.99 270,-150.99 273.5,-140.99 266.5,-140.99"/>
</g>
<!-- ServiceService -->
<g id="node4" class="node">
<title>ServiceService</title>
<ellipse fill="#fdb462" stroke="black" cx="116" cy="-104" rx="68.89" ry="18"/>
<text text-anchor="middle" x="116" y="-99.8" font-family="Times,serif" font-size="14.00">ServiceService</text>
</g>
<!-- ServiceService&#45;&gt;ServiceModule -->
<g id="edge3" class="edge">
<title>ServiceService&#45;&gt;ServiceModule</title>
<path fill="none" stroke="black" d="M116,-122.11C116,-141.34 116,-169 116,-169 116,-169 209.15,-169 209.15,-169"/>
<polygon fill="black" stroke="black" points="209.15,-172.5 219.15,-169 209.15,-165.5 209.15,-172.5"/>
</g>
</g>
</svg>
