<?xml version="1.0" encoding="UTF-8" standalone="no"?>
<!DOCTYPE svg PUBLIC "-//W3C//DTD SVG 1.1//EN"
 "http://www.w3.org/Graphics/SVG/1.1/DTD/svg11.dtd">
<!-- Generated by graphviz version 2.47.0 (20210316.0004)
 -->
<!-- Title: dependencies Pages: 1 -->
<svg width="504pt" height="211pt"
 viewBox="0.00 0.00 504.00 211.00" xmlns="http://www.w3.org/2000/svg" xmlns:xlink="http://www.w3.org/1999/xlink">
<g id="graph0" class="graph" transform="scale(1 1) rotate(0) translate(4 207)">
<title>dependencies</title>
<polygon fill="white" stroke="transparent" points="-4,4 -4,-207 500,-207 500,4 -4,4"/>
<text text-anchor="start" x="227.01" y="-42.4" font-family="Times-12" font-weight="bold" font-size="14.00">Legend</text>
<polygon fill="#ffffb3" stroke="transparent" points="14,-10 14,-30 34,-30 34,-10 14,-10"/>
<text text-anchor="start" x="37.63" y="-15.4" font-family="Times-12" font-size="14.00"> &#160;Declarations</text>
<polygon fill="#8dd3c7" stroke="transparent" points="127,-10 127,-30 147,-30 147,-10 127,-10"/>
<text text-anchor="start" x="150.73" y="-15.4" font-family="Times-12" font-size="14.00"> &#160;Module</text>
<polygon fill="#80b1d3" stroke="transparent" points="213,-10 213,-30 233,-30 233,-10 213,-10"/>
<text text-anchor="start" x="236.78" y="-15.4" font-family="Times-12" font-size="14.00"> &#160;Bootstrap</text>
<polygon fill="#fdb462" stroke="transparent" points="310,-10 310,-30 330,-30 330,-10 310,-10"/>
<text text-anchor="start" x="333.67" y="-15.4" font-family="Times-12" font-size="14.00"> &#160;Providers</text>
<polygon fill="#fb8072" stroke="transparent" points="406,-10 406,-30 426,-30 426,-10 406,-10"/>
<text text-anchor="start" x="429.73" y="-15.4" font-family="Times-12" font-size="14.00"> &#160;Exports</text>
<g id="clust1" class="cluster">
<title>cluster_TransactionModule</title>
<polygon fill="none" stroke="black" stroke-dasharray="1,5" points="70.5,-70 70.5,-195 425.5,-195 425.5,-70 70.5,-70"/>
</g>
<g id="clust6" class="cluster">
<title>cluster_TransactionModule_providers</title>
<polygon fill="none" stroke="black" points="78.5,-78 78.5,-130 417.5,-130 417.5,-78 78.5,-78"/>
</g>
<!-- PrismaService -->
<g id="node1" class="node">
<title>PrismaService</title>
<ellipse fill="#fdb462" stroke="black" cx="342.5" cy="-104" rx="66.63" ry="18"/>
<text text-anchor="middle" x="342.5" y="-99.8" font-family="Times,serif" font-size="14.00">PrismaService</text>
</g>
<!-- TransactionModule -->
<g id="node3" class="node">
<title>TransactionModule</title>
<polygon fill="#8dd3c7" stroke="black" points="320.13,-187 317.13,-191 296.13,-191 293.13,-187 194.87,-187 194.87,-151 320.13,-151 320.13,-187"/>
<text text-anchor="middle" x="257.5" y="-164.8" font-family="Times,serif" font-size="14.00">TransactionModule</text>
</g>
<!-- PrismaService&#45;&gt;TransactionModule -->
<g id="edge1" class="edge">
<title>PrismaService&#45;&gt;TransactionModule</title>
<path fill="none" stroke="black" d="M298,-117.47C298,-117.47 298,-140.86 298,-140.86"/>
<polygon fill="black" stroke="black" points="294.5,-140.86 298,-150.86 301.5,-140.86 294.5,-140.86"/>
</g>
<!-- TransactionService -->
<g id="node2" class="node">
<title>TransactionService</title>
<ellipse fill="#fdb462" stroke="black" cx="172.5" cy="-104" rx="85.65" ry="18"/>
<text text-anchor="middle" x="172.5" y="-99.8" font-family="Times,serif" font-size="14.00">TransactionService</text>
</g>
<!-- TransactionService&#45;&gt;TransactionModule -->
<g id="edge2" class="edge">
<title>TransactionService&#45;&gt;TransactionModule</title>
<path fill="none" stroke="black" d="M226.38,-118.1C226.38,-118.1 226.38,-140.72 226.38,-140.72"/>
<polygon fill="black" stroke="black" points="222.88,-140.72 226.38,-150.72 229.88,-140.72 222.88,-140.72"/>
</g>
</g>
</svg>
