<?xml version="1.0" encoding="UTF-8" standalone="no"?>
<!DOCTYPE svg PUBLIC "-//W3C//DTD SVG 1.1//EN"
 "http://www.w3.org/Graphics/SVG/1.1/DTD/svg11.dtd">
<!-- Generated by graphviz version 2.47.0 (20210316.0004)
 -->
<!-- Title: dependencies Pages: 1 -->
<svg width="650pt" height="211pt"
 viewBox="0.00 0.00 650.00 211.00" xmlns="http://www.w3.org/2000/svg" xmlns:xlink="http://www.w3.org/1999/xlink">
<g id="graph0" class="graph" transform="scale(1 1) rotate(0) translate(4 207)">
<title>dependencies</title>
<polygon fill="white" stroke="transparent" points="-4,4 -4,-207 646,-207 646,4 -4,4"/>
<text text-anchor="start" x="300.01" y="-42.4" font-family="Times-12" font-weight="bold" font-size="14.00">Legend</text>
<polygon fill="#ffffb3" stroke="transparent" points="87,-10 87,-30 107,-30 107,-10 87,-10"/>
<text text-anchor="start" x="110.63" y="-15.4" font-family="Times-12" font-size="14.00"> &#160;Declarations</text>
<polygon fill="#8dd3c7" stroke="transparent" points="200,-10 200,-30 220,-30 220,-10 200,-10"/>
<text text-anchor="start" x="223.73" y="-15.4" font-family="Times-12" font-size="14.00"> &#160;Module</text>
<polygon fill="#80b1d3" stroke="transparent" points="286,-10 286,-30 306,-30 306,-10 286,-10"/>
<text text-anchor="start" x="309.78" y="-15.4" font-family="Times-12" font-size="14.00"> &#160;Bootstrap</text>
<polygon fill="#fdb462" stroke="transparent" points="383,-10 383,-30 403,-30 403,-10 383,-10"/>
<text text-anchor="start" x="406.67" y="-15.4" font-family="Times-12" font-size="14.00"> &#160;Providers</text>
<polygon fill="#fb8072" stroke="transparent" points="479,-10 479,-30 499,-30 499,-10 479,-10"/>
<text text-anchor="start" x="502.73" y="-15.4" font-family="Times-12" font-size="14.00"> &#160;Exports</text>
<g id="clust1" class="cluster">
<title>cluster_AppModule</title>
<polygon fill="none" stroke="black" stroke-dasharray="1,5" points="8,-70 8,-195 634,-195 634,-70 8,-70"/>
</g>
<g id="clust3" class="cluster">
<title>cluster_AppModule_imports</title>
<polygon fill="none" stroke="black" points="154,-78 154,-130 626,-130 626,-78 154,-78"/>
</g>
<g id="clust6" class="cluster">
<title>cluster_AppModule_providers</title>
<polygon fill="none" stroke="black" points="16,-78 16,-130 146,-130 146,-78 16,-78"/>
</g>
<!-- AuthModule -->
<g id="node1" class="node">
<title>AuthModule</title>
<polygon fill="#8dd3c7" stroke="black" points="617.55,-122 614.55,-126 593.55,-126 590.55,-122 530.45,-122 530.45,-86 617.55,-86 617.55,-122"/>
<text text-anchor="middle" x="574" y="-99.8" font-family="Times,serif" font-size="14.00">AuthModule</text>
</g>
<!-- AppModule -->
<g id="node5" class="node">
<title>AppModule</title>
<polygon fill="#8dd3c7" stroke="black" points="370.66,-187 367.66,-191 346.66,-191 343.66,-187 287.34,-187 287.34,-151 370.66,-151 370.66,-187"/>
<text text-anchor="middle" x="329" y="-164.8" font-family="Times,serif" font-size="14.00">AppModule</text>
</g>
<!-- AuthModule&#45;&gt;AppModule -->
<g id="edge1" class="edge">
<title>AuthModule&#45;&gt;AppModule</title>
<path fill="none" stroke="black" d="M574,-122.28C574,-143.32 574,-175 574,-175 574,-175 380.84,-175 380.84,-175"/>
<polygon fill="black" stroke="black" points="380.84,-171.5 370.84,-175 380.84,-178.5 380.84,-171.5"/>
</g>
<!-- ServiceModule -->
<g id="node2" class="node">
<title>ServiceModule</title>
<polygon fill="#8dd3c7" stroke="black" points="511.53,-122 508.53,-126 487.53,-126 484.53,-122 410.47,-122 410.47,-86 511.53,-86 511.53,-122"/>
<text text-anchor="middle" x="461" y="-99.8" font-family="Times,serif" font-size="14.00">ServiceModule</text>
</g>
<!-- ServiceModule&#45;&gt;AppModule -->
<g id="edge2" class="edge">
<title>ServiceModule&#45;&gt;AppModule</title>
<path fill="none" stroke="black" d="M461,-122.02C461,-139.37 461,-163 461,-163 461,-163 380.77,-163 380.77,-163"/>
<polygon fill="black" stroke="black" points="380.77,-159.5 370.77,-163 380.77,-166.5 380.77,-159.5"/>
</g>
<!-- TransactionModule -->
<g id="node3" class="node">
<title>TransactionModule</title>
<polygon fill="#8dd3c7" stroke="black" points="391.63,-122 388.63,-126 367.63,-126 364.63,-122 266.37,-122 266.37,-86 391.63,-86 391.63,-122"/>
<text text-anchor="middle" x="329" y="-99.8" font-family="Times,serif" font-size="14.00">TransactionModule</text>
</g>
<!-- TransactionModule&#45;&gt;AppModule -->
<g id="edge3" class="edge">
<title>TransactionModule&#45;&gt;AppModule</title>
<path fill="none" stroke="black" d="M329,-122.11C329,-122.11 329,-140.99 329,-140.99"/>
<polygon fill="black" stroke="black" points="325.5,-140.99 329,-150.99 332.5,-140.99 325.5,-140.99"/>
</g>
<!-- UserModule -->
<g id="node4" class="node">
<title>UserModule</title>
<polygon fill="#8dd3c7" stroke="black" points="247.98,-122 244.98,-126 223.98,-126 220.98,-122 162.02,-122 162.02,-86 247.98,-86 247.98,-122"/>
<text text-anchor="middle" x="205" y="-99.8" font-family="Times,serif" font-size="14.00">UserModule</text>
</g>
<!-- UserModule&#45;&gt;AppModule -->
<g id="edge4" class="edge">
<title>UserModule&#45;&gt;AppModule</title>
<path fill="none" stroke="black" d="M205,-122.02C205,-139.37 205,-163 205,-163 205,-163 277.02,-163 277.02,-163"/>
<polygon fill="black" stroke="black" points="277.02,-166.5 287.02,-163 277.02,-159.5 277.02,-166.5"/>
</g>
<!-- AppService -->
<g id="node6" class="node">
<title>AppService</title>
<ellipse fill="#fdb462" stroke="black" cx="81" cy="-104" rx="56.74" ry="18"/>
<text text-anchor="middle" x="81" y="-99.8" font-family="Times,serif" font-size="14.00">AppService</text>
</g>
<!-- AppService&#45;&gt;AppModule -->
<g id="edge5" class="edge">
<title>AppService&#45;&gt;AppModule</title>
<path fill="none" stroke="black" d="M81,-122.28C81,-143.32 81,-175 81,-175 81,-175 277.21,-175 277.21,-175"/>
<polygon fill="black" stroke="black" points="277.21,-178.5 287.21,-175 277.21,-171.5 277.21,-178.5"/>
</g>
</g>
</svg>
